<svg width="832" height="454" xmlns="http://www.w3.org/2000/svg" xmlns:xlink="http://www.w3.org/1999/xlink" overflow="hidden"><defs><clipPath id="clip0"><rect x="0" y="0" width="832" height="454"/></clipPath></defs><g clip-path="url(#clip0)"><rect x="0" y="0" width="832" height="454.227" fill="#FFFFFF"/><text font-family="Yu Gothic,Yu Gothic_MSFontService,sans-serif" font-weight="400" font-size="19" transform="matrix(1 0 0 1.0005 300.838 35)">ポアンカレ群の二重被覆</text><path d="M32.8691 2.80543C34.6751 3.28166 36.062 4.3099 37.03 5.89014 37.9979 7.47038 38.4819 9.37688 38.4819 11.6096 38.4819 13.8486 37.9995 15.755 37.0346 17.3291 36.0698 18.9032 34.6813 19.9283 32.8691 20.4045L32.6464 19.6902C34.0751 19.214 35.1374 18.2738 35.8332 16.8699 36.529 15.4659 36.8769 13.6816 36.8769 11.5168 36.8769 9.42636 36.5305 7.68995 35.8378 6.30762 35.1451 4.9253 34.072 3.99602 32.6186 3.51978ZM7.28271 2.80543 7.5332 3.51978C6.08594 3.99602 5.0144 4.9253 4.3186 6.30762 3.6228 7.68995 3.2749 9.42636 3.2749 11.5168 3.2749 13.6816 3.6228 15.4659 4.3186 16.8699 5.0144 18.2738 6.07666 19.214 7.50537 19.6902L7.28271 20.4045C5.47054 19.9283 4.08203 18.9032 3.11719 17.3291 2.15234 15.755 1.66992 13.8486 1.66992 11.6096 1.66992 9.37688 2.15389 7.47038 3.12183 5.89014 4.08976 4.3099 5.47673 3.28166 7.28271 2.80543Z" fill-rule="evenodd" transform="matrix(1 0 0 1.0005 34.5271 139.257)"/><text font-family="Cambria Math,Cambria Math_MSFontService,sans-serif" font-weight="400" font-size="19" transform="matrix(1 0 0 1.0005 42.2784 156)">0</text><text font-family="Cambria Math,Cambria Math_MSFontService,sans-serif" font-weight="400" font-size="19" transform="matrix(1 0 0 1.0005 52.618 156)">,</text><text font-family="Cambria Math,Cambria Math_MSFontService,sans-serif" font-weight="400" font-size="19" transform="matrix(1 0 0 1.0005 56.4536 156)">0</text><text font-family="Yu Gothic,Yu Gothic_MSFontService,sans-serif" font-weight="400" font-size="19" transform="matrix(1 0 0 1.0005 74.5445 156)">：スピン</text><text font-family="Calibri,Calibri_MSFontService,sans-serif" font-weight="400" font-size="19" transform="matrix(1 0 0 1.0005 149.256 156)">0</text><text font-family="Yu Gothic,Yu Gothic_MSFontService,sans-serif" font-weight="400" font-size="19" transform="matrix(1 0 0 1.0005 158.762 156)">表現</text><path d="M38.3117 1.92608C40.3836 2.97751 42.0303 4.9072 43.2518 7.71514 44.4734 10.5231 45.0841 13.8134 45.0841 17.5862 45.0841 21.3343 44.4734 24.6246 43.2518 27.4573 42.0303 30.29 40.3836 32.2259 38.3117 33.2649L38.0148 32.5228C39.6723 31.4466 40.9696 29.5973 41.9066 26.9749 42.8436 24.3525 43.3121 21.2291 43.3121 17.6048 43.3121 13.9124 42.8405 10.7689 41.8973 8.17437 40.9541 5.5798 39.66 3.74443 38.0148 2.66826ZM8.396 1.92608 8.70215 2.66826C7.05697 3.74443 5.76278 5.5798 4.81958 8.17437 3.87638 10.7689 3.40479 13.9124 3.40479 17.6048 3.40479 21.2291 3.87175 24.3525 4.80566 26.9749 5.73958 29.5973 7.03841 31.4466 8.70215 32.5228L8.396 33.2649C6.33024 32.2259 4.6866 30.29 3.46509 27.4573 2.24357 24.6246 1.63281 21.3343 1.63281 17.5862 1.63281 13.8134 2.24357 10.5231 3.46509 7.71514 4.6866 4.9072 6.33024 2.97751 8.396 1.92608Z" fill-rule="evenodd" transform="matrix(1 0 0 1.0005 288.395 133.631)"/><text font-family="Cambria Math,Cambria Math_MSFontService,sans-serif" font-weight="400" font-size="14" transform="matrix(1 0 0 1.0005 297.554 146)">1</text><text font-family="Cambria Math,Cambria Math_MSFontService,sans-serif" font-weight="400" font-size="14" transform="matrix(1 0 0 1.0005 297.554 166)">2</text><path d="M9 17 17 17 17 18 9 18Z" fill-rule="evenodd" transform="matrix(1 0 0 1.0005 288.395 133.631)"/><text font-family="Cambria Math,Cambria Math_MSFontService,sans-serif" font-weight="400" font-size="19" transform="matrix(1 0 0 1.0005 308.507 157)">,</text><text font-family="Cambria Math,Cambria Math_MSFontService,sans-serif" font-weight="400" font-size="19" transform="matrix(1 0 0 1.0005 315.458 157)">0</text><text font-family="Cambria Math,Cambria Math_MSFontService,sans-serif" font-weight="400" font-size="19" transform="matrix(1 0 0 1.0005 339.105 157)">⊕</text><path d="M108.567 1.92608C110.639 2.97751 112.286 4.9072 113.507 7.71514 114.729 10.5231 115.34 13.8134 115.34 17.5862 115.34 21.3343 114.729 24.6246 113.507 27.4573 112.286 30.29 110.639 32.2259 108.567 33.2649L108.27 32.5228C109.928 31.4466 111.225 29.5973 112.162 26.9749 113.099 24.3525 113.568 21.2291 113.568 17.6048 113.568 13.9124 113.096 10.7689 112.153 8.17437 111.21 5.5798 109.916 3.74443 108.27 2.66826ZM81.7667 1.92608 82.0729 2.66826C80.4277 3.74443 79.1335 5.5798 78.1903 8.17437 77.2471 10.7689 76.7755 13.9124 76.7755 17.6048 76.7755 21.2291 77.2425 24.3525 78.1764 26.9749 79.1103 29.5973 80.4092 31.4466 82.0729 32.5228L81.7667 33.2649C79.701 32.2259 78.0574 30.29 76.8358 27.4573 75.6143 24.6246 75.0036 21.3343 75.0036 17.5862 75.0036 13.8134 75.6143 10.5231 76.8358 7.71514 78.0574 4.9072 79.701 2.97751 81.7667 1.92608Z" fill-rule="evenodd" transform="matrix(1 0 0 1.0005 288.395 133.631)"/><text font-family="Cambria Math,Cambria Math_MSFontService,sans-serif" font-weight="400" font-size="19" transform="matrix(1 0 0 1.0005 370.925 157)">0</text><text font-family="Cambria Math,Cambria Math_MSFontService,sans-serif" font-weight="400" font-size="19" transform="matrix(1 0 0 1.0005 381.264 157)">,</text><text font-family="Cambria Math,Cambria Math_MSFontService,sans-serif" font-weight="400" font-size="14" transform="matrix(1 0 0 1.0005 388.215 146)">1</text><text font-family="Cambria Math,Cambria Math_MSFontService,sans-serif" font-weight="400" font-size="14" transform="matrix(1 0 0 1.0005 388.215 166)">2</text><path d="M100 17 108 17 108 18 100 18Z" fill-rule="evenodd" transform="matrix(1 0 0 1.0005 288.395 133.631)"/><text font-family="Yu Gothic,Yu Gothic_MSFontService,sans-serif" font-weight="400" font-size="19" transform="matrix(1 0 0 1.0005 405.212 157)">：スピン</text><text font-family="Cambria Math,Cambria Math_MSFontService,sans-serif" font-weight="400" font-size="14" transform="matrix(1 0 0 1.0005 479.923 146)">1</text><text font-family="Cambria Math,Cambria Math_MSFontService,sans-serif" font-weight="400" font-size="14" transform="matrix(1 0 0 1.0005 479.923 166)">2</text><path d="M191 17 199 17 199 18 191 18Z" fill-rule="evenodd" transform="matrix(1 0 0 1.0005 288.395 133.631)"/><text font-family="Yu Gothic,Yu Gothic_MSFontService,sans-serif" font-weight="400" font-size="19" transform="matrix(1 0 0 1.0005 487.761 157)">表現</text><path d="M35.8102 1.92608C37.8821 2.97751 39.5288 4.9072 40.7503 7.71514 41.9719 10.5231 42.5826 13.8134 42.5826 17.5862 42.5826 21.3343 41.9719 24.6246 40.7503 27.4573 39.5288 30.29 37.8821 32.2259 35.8102 33.2649L35.5133 32.5228C37.1708 31.4466 38.4681 29.5973 39.4051 26.9749 40.3421 24.3525 40.8106 21.2291 40.8106 17.6048 40.8106 13.9124 40.339 10.7689 39.3958 8.17437 38.4526 5.5798 37.1585 3.74443 35.5133 2.66826ZM8.396 1.92608 8.70215 2.66826C7.05697 3.74443 5.76278 5.5798 4.81958 8.17437 3.87638 10.7689 3.40479 13.9124 3.40479 17.6048 3.40479 21.2291 3.87175 24.3525 4.80566 26.9749 5.73958 29.5973 7.03841 31.4466 8.70215 32.5228L8.396 33.2649C6.33024 32.2259 4.6866 30.29 3.46509 27.4573 2.24357 24.6246 1.63281 21.3343 1.63281 17.5862 1.63281 13.8134 2.24357 10.5231 3.46509 7.71514 4.6866 4.9072 6.33024 2.97751 8.396 1.92608Z" fill-rule="evenodd" transform="matrix(1 0 0 1.0005 620.094 133.294)"/><text font-family="Cambria Math,Cambria Math_MSFontService,sans-serif" font-weight="400" font-size="14" transform="matrix(1 0 0 1.0005 629.253 145)">1</text><text font-family="Cambria Math,Cambria Math_MSFontService,sans-serif" font-weight="400" font-size="14" transform="matrix(1 0 0 1.0005 629.253 166)">2</text><path d="M9 17 17 17 17 18 9 18Z" fill-rule="evenodd" transform="matrix(1 0 0 1.0005 620.094 133.294)"/><text font-family="Cambria Math,Cambria Math_MSFontService,sans-serif" font-weight="400" font-size="19" transform="matrix(1 0 0 1.0005 640.206 156)">,</text><text font-family="Cambria Math,Cambria Math_MSFontService,sans-serif" font-weight="400" font-size="14" transform="matrix(1 0 0 1.0005 647.157 145)">1</text><text font-family="Cambria Math,Cambria Math_MSFontService,sans-serif" font-weight="400" font-size="14" transform="matrix(1 0 0 1.0005 647.157 166)">2</text><path d="M27 17 35 17 35 18 27 18Z" fill-rule="evenodd" transform="matrix(1 0 0 1.0005 620.094 133.294)"/><text font-family="Yu Gothic,Yu Gothic_MSFontService,sans-serif" font-weight="400" font-size="19" transform="matrix(1 0 0 1.0005 664.154 156)">：スピン</text><text font-family="Calibri,Calibri_MSFontService,sans-serif" font-weight="400" font-size="19" transform="matrix(1 0 0 1.0005 738.866 156)">1</text><text font-family="Yu Gothic,Yu Gothic_MSFontService,sans-serif" font-weight="400" font-size="19" transform="matrix(1 0 0 1.0005 748.371 156)">表現</text><text font-family="Yu Gothic,Yu Gothic_MSFontService,sans-serif" font-weight="400" font-size="19" transform="matrix(1 0 0 1.0005 78.1074 236)">スカラー</text><text font-family="Yu Gothic,Yu Gothic_MSFontService,sans-serif" font-weight="400" font-size="19" transform="matrix(1 0 0 1.0005 362.461 236)">スピノール</text><text font-family="Yu Gothic,Yu Gothic_MSFontService,sans-serif" font-weight="400" font-size="19" transform="matrix(1 0 0 1.0005 668.324 236)">ベクトル</text><text font-family="Calibri,Calibri_MSFontService,sans-serif" font-weight="400" font-size="19" transform="matrix(1 0 0 1.0005 28.0804 349)">Free Spin 0 Lagrangian</text><text font-family="Calibri,Calibri_MSFontService,sans-serif" font-weight="400" font-size="19" transform="matrix(1 0 0 1.0005 618.028 349)">Free Spin 1 Lagrangian</text><text font-family="Calibri,Calibri_MSFontService,sans-serif" font-weight="400" font-size="19" transform="matrix(1 0 0 1.0005 321.485 350)">Free Spin</text><text font-family="Cambria Math,Cambria Math_MSFontService,sans-serif" font-weight="400" font-size="14" transform="matrix(1 0 0 1.0005 395.783 339)">1</text><text font-family="Cambria Math,Cambria Math_MSFontService,sans-serif" font-weight="400" font-size="14" transform="matrix(1 0 0 1.0005 395.783 359)">2</text><path d="M74 16 82 16 82 17 74 17Z" fill-rule="evenodd" transform="matrix(1 0 0 1.0005 321.485 327.491)"/><text font-family="Calibri,Calibri_MSFontService,sans-serif" font-weight="400" font-size="19" transform="matrix(1 0 0 1.0005 407.79 350)">Lagrangian</text><text font-family="Calibri,Calibri_MSFontService,sans-serif" font-weight="400" font-size="19" transform="matrix(1 0 0 1.0005 28.0804 444)">Klein</text><text font-family="Calibri,Calibri_MSFontService,sans-serif" font-weight="400" font-size="19" transform="matrix(1 0 0 1.0005 65.6029 444)">-</text><text font-family="Calibri,Calibri_MSFontService,sans-serif" font-weight="400" font-size="19" transform="matrix(1 0 0 1.0005 71.273 444)">Gordon</text><text font-family="Yu Gothic,Yu Gothic_MSFontService,sans-serif" font-weight="400" font-size="19" transform="matrix(1 0 0 1.0005 128.721 444)">方程式</text><text font-family="Calibri,Calibri_MSFontService,sans-serif" font-weight="400" font-size="19" transform="matrix(1 0 0 1.0005 354.985 444)">Dirac</text><text font-family="Yu Gothic,Yu Gothic_MSFontService,sans-serif" font-weight="400" font-size="19" transform="matrix(1 0 0 1.0005 393.795 444)">方程式</text><text font-family="Calibri,Calibri_MSFontService,sans-serif" font-weight="400" font-size="19" transform="matrix(1 0 0 1.0005 654.05 444)">Proka</text><text font-family="Yu Gothic,Yu Gothic_MSFontService,sans-serif" font-weight="400" font-size="19" transform="matrix(1 0 0 1.0005 696.956 444)">方程式</text><path d="M406.001 38.019 406.001 93.0653 403.999 93.0653 403.999 38.019ZM410.534 85.561 405 95.0522 399.466 85.561C399.188 85.0834 399.349 84.4704 399.826 84.1918 400.304 83.9132 400.916 84.0746 401.195 84.5521L405.864 92.561 404.136 92.561 408.805 84.5521C409.084 84.0746 409.696 83.9132 410.174 84.1918 410.651 84.4704 410.812 85.0834 410.534 85.561Z" fill="#172C51"/><path d="M406.001 96.048 406.001 126.082 403.999 126.082 403.999 96.048ZM410.534 118.578 405 128.069 399.466 118.578C399.188 118.1 399.349 117.487 399.826 117.208 400.304 116.93 400.916 117.091 401.195 117.569L405.864 125.577 404.136 125.577 408.805 117.569C409.084 117.091 409.696 116.93 410.174 117.208 410.651 117.487 410.812 118.1 410.534 118.578Z" fill="#172C51"/><path d="M405.135 94.0386 120.097 132.791 119.828 130.807 404.865 92.0546ZM128.141 136.275 117.995 132.067 126.65 125.303C127.086 124.962 127.715 125.04 128.055 125.475 128.395 125.911 128.318 126.54 127.882 126.88L120.579 132.588 120.346 130.874 128.907 134.425C129.418 134.637 129.66 135.223 129.448 135.733 129.237 136.244 128.651 136.487 128.141 136.275Z" fill="#172C51"/><path d="M287.135 0.991489 2.10017 39.7244 1.8307 37.7415 286.865-0.991489ZM10.1406 43.2067-0.00459512 39.0007 8.65035 32.2399C9.08585 31.8997 9.71466 31.977 10.0548 32.4125 10.395 32.848 10.3178 33.4768 9.88227 33.817L2.57911 39.5218 2.34635 37.8089 10.907 41.358C11.4175 41.5697 11.6598 42.1551 11.4481 42.6656 11.2365 43.176 10.6511 43.4183 10.1406 43.2067Z" fill="#172C51" transform="matrix(-1 0 0 1.0005 692 92.046)"/><path d="M115.001 160.08 115.001 216.127 112.999 216.127 112.999 160.08ZM119.534 208.623 114 218.114 108.466 208.623C108.188 208.145 108.349 207.532 108.826 207.253 109.304 206.975 109.916 207.136 110.195 207.614L114.864 215.623 113.136 215.623 117.805 207.614C118.084 207.136 118.696 206.975 119.174 207.253 119.651 207.532 119.812 208.145 119.534 208.623Z" fill="#172C51"/><path d="M404.001 164.082 404.001 220.129 401.999 220.129 401.999 164.082ZM408.534 212.625 403 222.116 397.466 212.625C397.188 212.147 397.349 211.534 397.826 211.255 398.304 210.977 398.916 211.138 399.195 211.616L403.864 219.625 402.136 219.625 406.805 211.616C407.084 211.138 407.696 210.977 408.174 211.255 408.651 211.534 408.812 212.147 408.534 212.625Z" fill="#172C51"/><path d="M704.001 164.082 704.001 220.129 701.999 220.129 701.999 164.082ZM708.534 212.625 703 222.116 697.466 212.625C697.188 212.147 697.349 211.534 697.826 211.255 698.304 210.977 698.916 211.138 699.195 211.616L703.864 219.625 702.136 219.625 706.805 211.616C707.084 211.138 707.696 210.977 708.174 211.255 708.651 211.534 708.812 212.147 708.534 212.625Z" fill="#172C51"/><path d="M115.001 236.118 115.001 319.179 112.999 319.179 112.999 236.118ZM119.534 311.674 114 321.165 108.466 311.674C108.188 311.197 108.349 310.584 108.826 310.305 109.304 310.027 109.916 310.188 110.195 310.665L114.864 318.674 113.136 318.674 117.805 310.665C118.084 310.188 118.696 310.027 119.174 310.305 119.651 310.584 119.812 311.197 119.534 311.674Z" fill="#172C51"/><path d="M404.001 239.12 404.001 322.18 401.999 322.18 401.999 239.12ZM408.534 314.676 403 324.167 397.466 314.676C397.188 314.198 397.349 313.585 397.826 313.307 398.304 313.028 398.916 313.189 399.195 313.667L403.864 321.676 402.136 321.676 406.805 313.667C407.084 313.189 407.696 313.028 408.174 313.307 408.651 313.585 408.812 314.198 408.534 314.676Z" fill="#172C51"/><path d="M704.001 242.121 704.001 325.182 701.999 325.182 701.999 242.121ZM708.534 317.677 703 327.168 697.466 317.677C697.188 317.2 697.349 316.587 697.826 316.308 698.304 316.029 698.916 316.191 699.195 316.668L703.864 324.677 702.136 324.677 706.805 316.668C707.084 316.191 707.696 316.029 708.174 316.308 708.651 316.587 708.812 317.2 708.534 317.677Z" fill="#172C51"/><path d="M113.001 361.181 113.001 417.228 110.999 417.228 110.999 361.181ZM117.534 409.723 112 419.215 106.466 409.723C106.188 409.246 106.349 408.633 106.826 408.354 107.304 408.076 107.916 408.237 108.195 408.715L112.864 416.723 111.136 416.723 115.805 408.715C116.084 408.237 116.696 408.076 117.174 408.354 117.651 408.633 117.812 409.246 117.534 409.723Z" fill="#172C51"/><path d="M403.001 361.181 403.001 417.228 400.999 417.228 400.999 361.181ZM407.534 409.723 402 419.215 396.466 409.723C396.188 409.246 396.349 408.633 396.826 408.354 397.304 408.076 397.916 408.237 398.195 408.715L402.864 416.723 401.136 416.723 405.805 408.715C406.084 408.237 406.696 408.076 407.174 408.354 407.651 408.633 407.812 409.246 407.534 409.723Z" fill="#172C51"/><path d="M703.001 361.181 703.001 417.228 700.999 417.228 700.999 361.181ZM707.534 409.723 702 419.215 696.466 409.723C696.188 409.246 696.349 408.633 696.826 408.354 697.304 408.076 697.916 408.237 698.195 408.715L702.864 416.723 701.136 416.723 705.805 408.715C706.084 408.237 706.696 408.076 707.174 408.354 707.651 408.633 707.812 409.246 707.534 409.723Z" fill="#172C51"/><rect x="358" y="48.024" width="98" height="33.0165" fill="#FFFFFF"/><text font-family="Yu Gothic,Yu Gothic_MSFontService,sans-serif" font-weight="400" font-size="19" transform="matrix(1 0 0 1.0005 367.291 70)">既約表現</text><rect x="87" y="169.085" width="57" height="32.0159" fill="#FFFFFF"/><text font-family="Yu Gothic,Yu Gothic_MSFontService,sans-serif" font-weight="400" font-size="19" transform="matrix(1 0 0 1.0005 96.8072 191)">作用</text><rect x="376" y="174.087" width="58" height="32.0161" fill="#FFFFFF"/><text font-family="Yu Gothic,Yu Gothic_MSFontService,sans-serif" font-weight="400" font-size="19" transform="matrix(1 0 0 1.0005 386.035 196)">作用</text><rect x="676" y="175.088" width="57.0001" height="32.0161" fill="#FFFFFF"/><text font-family="Yu Gothic,Yu Gothic_MSFontService,sans-serif" font-weight="400" font-size="19" transform="matrix(1 0 0 1.0005 685.362 197)">作用</text><rect x="14" y="248.124" width="214" height="55.0276" fill="#FFFFFF"/><text font-family="Yu Gothic,Yu Gothic_MSFontService,sans-serif" font-weight="400" font-size="19" transform="matrix(1 0 0 1.0005 23.4219 270)">ラグランジアンが</text><text font-family="Yu Gothic,Yu Gothic_MSFontService,sans-serif" font-weight="400" font-size="19" transform="matrix(1 0 0 1.0005 23.4219 293)">不変であるという制約</text><rect x="307" y="248.124" width="215" height="55.0276" fill="#FFFFFF"/><text font-family="Yu Gothic,Yu Gothic_MSFontService,sans-serif" font-weight="400" font-size="19" transform="matrix(1 0 0 1.0005 316.826 270)">ラグランジアンが</text><text font-family="Yu Gothic,Yu Gothic_MSFontService,sans-serif" font-weight="400" font-size="19" transform="matrix(1 0 0 1.0005 316.826 293)">不変であるという制約</text><rect x="604" y="248.124" width="214" height="55.0276" fill="#FFFFFF"/><text font-family="Yu Gothic,Yu Gothic_MSFontService,sans-serif" font-weight="400" font-size="19" transform="matrix(1 0 0 1.0005 613.369 270)">ラグランジアンが</text><text font-family="Yu Gothic,Yu Gothic_MSFontService,sans-serif" font-weight="400" font-size="19" transform="matrix(1 0 0 1.0005 613.369 293)">不変であるという制約</text><rect x="18" y="373.187" width="191" height="33.0165" fill="#FFFFFF"/><text font-family="Calibri,Calibri_MSFontService,sans-serif" font-weight="400" font-size="19" transform="matrix(1 0 0 1.0005 28.0804 396)">Euler</text><text font-family="Calibri,Calibri_MSFontService,sans-serif" font-weight="400" font-size="19" transform="matrix(1 0 0 1.0005 67.2706 396)">-</text><text font-family="Calibri,Calibri_MSFontService,sans-serif" font-weight="400" font-size="19" transform="matrix(1 0 0 1.0005 72.9407 396)">Lagrange</text><text font-family="Yu Gothic,Yu Gothic_MSFontService,sans-serif" font-weight="400" font-size="19" transform="matrix(1 0 0 1.0005 141.615 396)">方程式</text><rect x="312" y="373.187" width="190" height="33.0165" fill="#FFFFFF"/><text font-family="Calibri,Calibri_MSFontService,sans-serif" font-weight="400" font-size="19" transform="matrix(1 0 0 1.0005 321.485 396)">Euler</text><text font-family="Calibri,Calibri_MSFontService,sans-serif" font-weight="400" font-size="19" transform="matrix(1 0 0 1.0005 360.675 396)">-</text><text font-family="Calibri,Calibri_MSFontService,sans-serif" font-weight="400" font-size="19" transform="matrix(1 0 0 1.0005 366.345 396)">Lagrange</text><text font-family="Yu Gothic,Yu Gothic_MSFontService,sans-serif" font-weight="400" font-size="19" transform="matrix(1 0 0 1.0005 435.02 396)">方程式</text><rect x="608" y="373.187" width="190" height="33.0165" fill="#FFFFFF"/><text font-family="Calibri,Calibri_MSFontService,sans-serif" font-weight="400" font-size="19" transform="matrix(1 0 0 1.0005 618.028 396)">Euler</text><text font-family="Calibri,Calibri_MSFontService,sans-serif" font-weight="400" font-size="19" transform="matrix(1 0 0 1.0005 657.218 396)">-</text><text font-family="Calibri,Calibri_MSFontService,sans-serif" font-weight="400" font-size="19" transform="matrix(1 0 0 1.0005 662.888 396)">Lagrange</text><text font-family="Yu Gothic,Yu Gothic_MSFontService,sans-serif" font-weight="400" font-size="19" transform="matrix(1 0 0 1.0005 731.563 396)">方程式</text></g></svg>