<svg width="265" height="113" xmlns="http://www.w3.org/2000/svg" xmlns:xlink="http://www.w3.org/1999/xlink" overflow="hidden"><defs><clipPath id="clip0"><rect x="0" y="0" width="265" height="113"/></clipPath></defs><g clip-path="url(#clip0)"><rect x="0" y="0" width="265" height="113.45" fill="#FFFFFF"/><text font-family="Calibri,Calibri_MSFontService,sans-serif" font-weight="400" font-size="15" transform="matrix(1 0 0 0.995178 101.509 24)">3</text><text font-family="Yu Gothic,Yu Gothic_MSFontService,sans-serif" font-weight="400" font-size="15" transform="matrix(1 0 0 0.995178 109.023 24)">次元回転</text><text font-family="Cambria Math,Cambria Math_MSFontService,sans-serif" font-weight="400" font-size="15" transform="matrix(1 0 0 0.995178 15.5623 103)">𝒮</text><text font-family="Cambria Math,Cambria Math_MSFontService,sans-serif" font-weight="400" font-size="15" transform="matrix(1 0 0 0.995178 24.0784 103)">𝒰</text><path d="M37.026 2.7174C38.4449 3.09156 39.5345 3.89941 40.295 5.14095 41.0555 6.3825 41.4357 7.88036 41.4357 9.63456 41.4357 11.3936 41.0567 12.8915 40.2987 14.1282 39.5406 15.3648 38.4497 16.1703 37.026 16.5444L36.851 15.9832C37.9735 15.609 38.8081 14.8704 39.3548 13.7674 39.9014 12.6643 40.1748 11.2624 40.1748 9.56167 40.1748 7.91924 39.9026 6.555 39.3584 5.46895 38.8142 4.38291 37.9711 3.6528 36.8292 3.27864ZM27.7834 2.7174 27.9802 3.27864C26.8431 3.6528 26.0012 4.38291 25.4546 5.46895 24.9079 6.555 24.6346 7.91924 24.6346 9.56167 24.6346 11.2624 24.9079 12.6643 25.4546 13.7674 26.0012 14.8704 26.8358 15.609 27.9583 15.9832L27.7834 16.5444C26.3596 16.1703 25.2687 15.3648 24.5107 14.1282 23.7526 12.8915 23.3736 11.3936 23.3736 9.63456 23.3736 7.88036 23.7538 6.3825 24.5143 5.14095 25.2748 3.89941 26.3645 3.09156 27.7834 2.7174Z" fill-rule="evenodd" transform="matrix(1.00485 0 0 1 13.7522 88.7614)"/><text font-family="Cambria Math,Cambria Math_MSFontService,sans-serif" font-weight="400" font-size="15" transform="matrix(1 0 0 0.995178 42.1325 103)">2</text><text font-family="Cambria Math,Cambria Math_MSFontService,sans-serif" font-weight="400" font-size="15" transform="matrix(1 0 0 0.995178 209.69 101)">𝒮𝒪</text><path d="M35.5237 2.7174C36.9426 3.09156 38.0323 3.89941 38.7928 5.14095 39.5533 6.3825 39.9335 7.88036 39.9335 9.63456 39.9335 11.3936 39.5545 12.8915 38.7964 14.1282 38.0384 15.3648 36.9475 16.1703 35.5237 16.5444L35.3488 15.9832C36.4713 15.609 37.3059 14.8704 37.8525 13.7674 38.3992 12.6643 38.6725 11.2624 38.6725 9.56167 38.6725 7.91924 38.4004 6.555 37.8562 5.46895 37.3119 4.38291 36.4688 3.6528 35.3269 3.27864ZM26.2811 2.7174 26.4779 3.27864C25.3409 3.6528 24.499 4.38291 23.9523 5.46895 23.4057 6.555 23.1323 7.91924 23.1323 9.56167 23.1323 11.2624 23.4057 12.6643 23.9523 13.7674 24.499 14.8704 25.3336 15.609 26.4561 15.9832L26.2811 16.5444C24.8574 16.1703 23.7665 15.3648 23.0084 14.1282 22.2504 12.8915 21.8714 11.3936 21.8714 9.63456 21.8714 7.88036 22.2516 6.3825 23.0121 5.14095 23.7725 3.89941 24.8622 3.09156 26.2811 2.7174Z" fill-rule="evenodd" transform="matrix(1.00485 0 0 1 207.874 87.3102)"/><text font-family="Cambria Math,Cambria Math_MSFontService,sans-serif" font-weight="400" font-size="15" transform="matrix(1 0 0 0.995178 234.744 101)">3</text><path d="M36.0894 84.5634 103.047 32.6277 103.868 33.6762 36.9107 85.612ZM94.1717 33.7271 104.502 32.3413 100.629 41.9726C100.492 42.3135 100.104 42.4792 99.7612 42.3428 99.4187 42.2064 99.2522 41.8196 99.3892 41.4787L102.837 32.9053 103.546 33.8111 94.3501 35.0446C93.9845 35.0937 93.6482 34.8385 93.599 34.4747 93.5497 34.1109 93.8061 33.7762 94.1717 33.7271Z" fill="#172C51"/><path d="M-0.408624 52.2202 66.2256 0.284615 67.0429 1.33316 0.408624 53.2687ZM57.3936 1.3839 67.6745-0.00189397 63.8202 9.62942C63.6839 9.97025 63.297 10.136 62.9562 9.99958 62.6153 9.86319 62.4496 9.47632 62.586 9.1355L66.0169 0.562113 66.7228 1.46782 57.5712 2.7014C57.2074 2.75044 56.8727 2.49526 56.8237 2.13145 56.7746 1.76763 57.0298 1.43294 57.3936 1.3839Z" fill="#172C51" transform="matrix(-1.00485 0 0 1 225.5 32.3432)"/><path d="M16.5 112.953 249.5 111.958" stroke="#172C51" stroke-width="1.33585" stroke-miterlimit="8" fill="none" fill-rule="evenodd"/></g></svg>