<svg width="265" height="113" xmlns="http://www.w3.org/2000/svg" xmlns:xlink="http://www.w3.org/1999/xlink" overflow="hidden"><defs><clipPath id="clip0"><rect x="0" y="0" width="265" height="113"/></clipPath></defs><g clip-path="url(#clip0)"><rect x="0" y="0" width="265" height="113.45" fill="#FFFFFF"/><text font-family="Yu Gothic,Yu Gothic_MSFontService,sans-serif" font-weight="400" font-size="15" transform="matrix(1 0 0 0.995178 71.4398 103)">ベクトルの</text><text font-family="Calibri,Calibri_MSFontService,sans-serif" font-weight="400" font-size="15" transform="matrix(1 0 0 0.995178 146.582 103)">π</text><text font-family="Yu Gothic,Yu Gothic_MSFontService,sans-serif" font-weight="400" font-size="15" transform="matrix(1 0 0 0.995178 154.931 103)">回転</text><text font-family="Cambria Math,Cambria Math_MSFontService,sans-serif" font-weight="400" font-size="15" transform="matrix(1 0 0 0.995178 9.81395 18)">𝑡</text><text font-family="Cambria Math,Cambria Math_MSFontService,sans-serif" font-weight="400" font-size="11" transform="matrix(1 0 0 0.995178 15.4379 21)">𝜙</text><text font-family="Cambria Math,Cambria Math_MSFontService,sans-serif" font-weight="400" font-size="11" transform="matrix(1 0 0 0.995178 24.0208 21)">=</text><text font-family="Cambria Math,Cambria Math_MSFontService,sans-serif" font-weight="400" font-size="11" transform="matrix(1 0 0 0.995178 32.0359 21)">𝜋</text><text font-family="Cambria Math,Cambria Math_MSFontService,sans-serif" font-weight="400" font-size="15" transform="matrix(1 0 0 0.995178 44.2255 18)">=</text><text font-family="Cambria Math,Cambria Math_MSFontService,sans-serif" font-weight="400" font-size="15" transform="matrix(1 0 0 0.995178 59.5678 18)">𝒰</text><path d="M-0.408624 52.2202 66.2256 0.284615 67.0429 1.33316 0.408624 53.2687ZM57.3936 1.3839 67.6745-0.00189397 63.8202 9.62942C63.6839 9.97025 63.297 10.136 62.9562 9.99958 62.6153 9.86319 62.4496 9.47632 62.586 9.1355L66.0169 0.562113 66.7228 1.46782 57.5712 2.7014C57.2074 2.75044 56.8727 2.49526 56.8237 2.13145 56.7746 1.76763 57.0298 1.43294 57.3936 1.3839Z" fill="#172C51" transform="matrix(1.00485 0 0 -1 52.5 85.0877)"/><path d="M215.911 32.8675 148.953 84.8031 148.132 83.7545 215.089 31.819ZM157.828 83.7038 147.498 85.0896 151.371 75.4583C151.508 75.1174 151.896 74.9517 152.239 75.0881 152.581 75.2245 152.748 75.6114 152.611 75.9522L149.163 84.5256 148.454 83.6199 157.65 82.3863C158.015 82.3372 158.352 82.5924 158.401 82.9562 158.45 83.3201 158.194 83.6547 157.828 83.7038Z" fill="#172C51"/><text font-family="Cambria Math,Cambria Math_MSFontService,sans-serif" font-weight="400" font-size="15" transform="matrix(1 0 0 0.995178 179.306 18)">𝑡</text><text font-family="Cambria Math,Cambria Math_MSFontService,sans-serif" font-weight="400" font-size="11" transform="matrix(1 0 0 0.995178 184.93 21)">𝜙</text><text font-family="Cambria Math,Cambria Math_MSFontService,sans-serif" font-weight="400" font-size="11" transform="matrix(1 0 0 0.995178 193.513 21)">=</text><text font-family="Cambria Math,Cambria Math_MSFontService,sans-serif" font-weight="400" font-size="11" transform="matrix(1 0 0 0.995178 201.528 21)">3</text><text font-family="Cambria Math,Cambria Math_MSFontService,sans-serif" font-weight="400" font-size="11" transform="matrix(1 0 0 0.995178 207.873 21)">𝜋</text><text font-family="Cambria Math,Cambria Math_MSFontService,sans-serif" font-weight="400" font-size="15" transform="matrix(1 0 0 0.995178 220.063 18)">=</text><text font-family="Cambria Math,Cambria Math_MSFontService,sans-serif" font-weight="400" font-size="15" transform="matrix(1 0 0 0.995178 235.405 18)">−</text><text font-family="Cambria Math,Cambria Math_MSFontService,sans-serif" font-weight="400" font-size="15" transform="matrix(1 0 0 0.995178 246.593 18)">𝒰</text></g></svg>