<svg width="265" height="113" xmlns="http://www.w3.org/2000/svg" xmlns:xlink="http://www.w3.org/1999/xlink" overflow="hidden"><defs><clipPath id="clip0"><rect x="0" y="0" width="265" height="113"/></clipPath></defs><g clip-path="url(#clip0)"><rect x="0" y="0" width="265" height="113.45" fill="#FFFFFF"/><text font-family="Yu Gothic,Yu Gothic_MSFontService,sans-serif" font-weight="400" font-size="15" transform="matrix(1 0 0 0.995178 51.8645 31)">ローレンツ</text><text font-family="Yu Gothic,Yu Gothic_MSFontService,sans-serif" font-weight="400" font-size="15" transform="matrix(1 0 0 0.995178 127.006 31)">変換</text><text font-family="Yu Gothic,Yu Gothic_MSFontService,sans-serif" font-weight="400" font-size="15" transform="matrix(1 0 0 0.995178 157.063 31)">＋並進</text><text font-family="Yu Gothic,Yu Gothic_MSFontService,sans-serif" font-weight="400" font-size="15" transform="matrix(1 0 0 0.995178 83.134 95)">ポアンカレ</text><text font-family="Yu Gothic,Yu Gothic_MSFontService,sans-serif" font-weight="400" font-size="15" transform="matrix(1 0 0 0.995178 158.276 95)">群</text><path d="M127.168 38.3144 127.168 76.8054 125.832 76.8054 125.832 38.3144ZM131.752 69.1638 126.5 78.1245 121.248 69.1638C121.062 68.8467 121.169 68.4397 121.488 68.2547 121.807 68.0697 122.216 68.1769 122.401 68.494L127.077 76.4704 125.923 76.4704 130.599 68.494C130.784 68.1769 131.193 68.0697 131.512 68.2547 131.831 68.4397 131.938 68.8467 131.752 69.1638Z" fill="#172C51"/></g></svg>