<svg width="265" height="113" xmlns="http://www.w3.org/2000/svg" xmlns:xlink="http://www.w3.org/1999/xlink" overflow="hidden"><defs><clipPath id="clip0"><rect x="0" y="0" width="265" height="113"/></clipPath></defs><g clip-path="url(#clip0)"><rect x="0" y="0" width="265" height="113.45" fill="#FFFFFF"/><text font-family="Yu Gothic,Yu Gothic_MSFontService,sans-serif" font-weight="400" font-size="15" transform="matrix(1 0 0 0.995178 70.5088 15)">ローレンツ変換</text><text font-family="Yu Gothic,Yu Gothic_MSFontService,sans-serif" font-weight="400" font-size="15" transform="matrix(1 0 0 0.995178 42.207 53)">リー代数</text><text font-family="Cambria Math,Cambria Math_MSFontService,sans-serif" font-weight="400" font-size="15" transform="matrix(1 0 0 0.995178 106.475 53)">≡</text><text font-family="Cambria Math,Cambria Math_MSFontService,sans-serif" font-weight="400" font-size="15" transform="matrix(1 0 0 0.995178 121.817 53)">𝒮𝒰</text><path d="M117.003 2.7174C118.422 3.09156 119.512 3.89941 120.272 5.14095 121.033 6.3825 121.413 7.88036 121.413 9.63456 121.413 11.3936 121.034 12.8915 120.276 14.1282 119.518 15.3648 118.427 16.1703 117.003 16.5444L116.828 15.9832C117.951 15.609 118.786 14.8704 119.332 13.7674 119.879 12.6643 120.152 11.2624 120.152 9.56167 120.152 7.91924 119.88 6.555 119.336 5.46895 118.792 4.38291 117.948 3.6528 116.807 3.27864ZM107.761 2.7174 107.958 3.27864C106.821 3.6528 105.979 4.38291 105.432 5.46895 104.885 6.555 104.612 7.91924 104.612 9.56167 104.612 11.2624 104.885 12.6643 105.432 13.7674 105.979 14.8704 106.813 15.609 107.936 15.9832L107.761 16.5444C106.337 16.1703 105.246 15.3648 104.488 14.1282 103.73 12.8915 103.351 11.3936 103.351 9.63456 103.351 7.88036 103.731 6.3825 104.492 5.14095 105.252 3.89941 106.342 3.09156 107.761 2.7174Z" fill-rule="evenodd" transform="matrix(1.00485 0 0 1 39.6421 38.7587)"/><text font-family="Cambria Math,Cambria Math_MSFontService,sans-serif" font-weight="400" font-size="15" transform="matrix(1 0 0 0.995178 148.387 53)">2</text><text font-family="Cambria Math,Cambria Math_MSFontService,sans-serif" font-weight="400" font-size="15" transform="matrix(1 0 0 0.995178 166.274 53)">⊕</text><text font-family="Cambria Math,Cambria Math_MSFontService,sans-serif" font-weight="400" font-size="15" transform="matrix(1 0 0 0.995178 184.462 53)">𝒮𝒰</text><path d="M179.346 2.7174C180.765 3.09156 181.855 3.89941 182.615 5.14095 183.376 6.3825 183.756 7.88036 183.756 9.63456 183.756 11.3936 183.377 12.8915 182.619 14.1282 181.861 15.3648 180.77 16.1703 179.346 16.5444L179.171 15.9832C180.294 15.609 181.128 14.8704 181.675 13.7674 182.222 12.6643 182.495 11.2624 182.495 9.56167 182.495 7.91924 182.223 6.555 181.679 5.46895 181.134 4.38291 180.291 3.6528 179.149 3.27864ZM170.104 2.7174 170.3 3.27864C169.163 3.6528 168.321 4.38291 167.775 5.46895 167.228 6.555 166.955 7.91924 166.955 9.56167 166.955 11.2624 167.228 12.6643 167.775 13.7674 168.321 14.8704 169.156 15.609 170.278 15.9832L170.104 16.5444C168.68 16.1703 167.589 15.3648 166.831 14.1282 166.073 12.8915 165.694 11.3936 165.694 9.63456 165.694 7.88036 166.074 6.3825 166.834 5.14095 167.595 3.89941 168.685 3.09156 170.104 2.7174Z" fill-rule="evenodd" transform="matrix(1.00485 0 0 1 39.6421 38.7587)"/><text font-family="Cambria Math,Cambria Math_MSFontService,sans-serif" font-weight="400" font-size="15" transform="matrix(1 0 0 0.995178 211.032 53)">2</text><text font-family="Yu Gothic,Yu Gothic_MSFontService,sans-serif" font-weight="400" font-size="16" transform="matrix(1 0 0 0.995178 77.7458 98)">二重被覆の表現</text><path d="M133.168 17.4156 133.168 34.0127 131.832 34.0127 131.832 17.4156ZM137.752 26.3712 132.5 35.3319 127.248 26.3712C127.062 26.0541 127.169 25.6471 127.488 25.4621 127.807 25.2771 128.216 25.3842 128.401 25.7013L133.077 33.6778 131.923 33.6778 136.599 25.7013C136.784 25.3842 137.193 25.2771 137.512 25.4621 137.831 25.6471 137.938 26.0541 137.752 26.3712Z" fill="#172C51"/><path d="M131.168 59.213 131.168 76.8053 129.832 76.8053 129.832 59.213ZM135.752 69.1638 130.5 78.1245 125.248 69.1638C125.062 68.8467 125.169 68.4397 125.488 68.2547 125.807 68.0697 126.216 68.1769 126.401 68.494L131.077 76.4704 129.923 76.4704 134.599 68.494C134.784 68.1769 135.193 68.0697 135.512 68.2547 135.831 68.4397 135.938 68.8467 135.752 69.1638Z" fill="#172C51"/><path d="M16.5 112.953 249.5 111.958" stroke="#172C51" stroke-width="1.33585" stroke-miterlimit="8" fill="none" fill-rule="evenodd"/></g></svg>